# xmcd
#
# Track frame offsets:
#	150
#	11217
#	22391
#	35110
#	46041
#	56116
#	68228
#	79230
#	90917
#	102757
#	113464
#	123598
#	135776
#	145577
#	155424
#	166357
#	176238
#	186582
#	198725
#	211765
#	221147
#	231876
#	241417
#	252419
#
# Disc length: 3520 seconds
# Revision: 0
# Processed by: cddbd v1.5.2PL0 Copyright (c) Steve Scherf et al.
# Submitted via: dBpowerAMP V12.0
#
DISCID=5c0dbe18
DTITLE=Jean Shepard - The First Lady Of Country Disc 1
DYEAR=2012
DGENRE=Country
TTITLE0=A Passing Love Affair
TTITLE1=Shadows On The Wall
TTITLE2=Girls In Disgrace
TTITLE3=Over And Over
TTITLE4=Hello Old Broken Heart
TTITLE5=The Mysteries Of Life
TTITLE6=Tell Me What I Want To Hear
TTITLE7=I'll Thank You All My Life
TTITLE8=Sad Singin' And Slow Ridin'
TTITLE9=Did I Turn Down A Better Deal
TTITLE10=I Married You For Love
TTITLE11=It's Hard To Tell The Married From The Free
TTITLE12=A Thief In The Night
TTITLE13=I'll Hold You In My Heart
TTITLE14=The Weak And The Strong
TTITLE15=You'd Better Go
TTITLE16=Sweet Temptation
TTITLE17=I'll Nevedr Be Free
TTITLE18=You Win Again
TTITLE19=I Hate Myself
TTITLE20=You're Telling Me Sweet Lies Again
TTITLE21=Memory
TTITLE22=You Can't Break The Chains Of Love
TTITLE23=I Love You Because
EXTD=
EXTT0=
EXTT1=
EXTT2=
EXTT3=
EXTT4=
EXTT5=
EXTT6=
EXTT7=
EXTT8=
EXTT9=
EXTT10=
EXTT11=
EXTT12=
EXTT13=
EXTT14=
EXTT15=
EXTT16=
EXTT17=
EXTT18=
EXTT19=
EXTT20=
EXTT21=
EXTT22=
EXTT23=
PLAYORDER=
